<svg xmlns="http://www.w3.org/2000/svg" width="64" height="60" viewBox="0 0 64 60">
    <path fill="#FFF" fill-rule="evenodd" stroke="#FFF" d="M50.736 48.705l-12.415 5.523-.055.494c2.382.616 4.755 1.267 7.147 1.838 1.963.468 3.64.046 4.807-1.767 1.256-1.952 1.69-3.946.516-6.088m-16.002.645c.003 2.774.884 3.511 3.391 2.5 3.553-1.434 7.026-3.061 10.531-4.613.949-.42 1.082-.977.512-1.912-1.992-3.27-4.836-4.607-8.164-3.721-3.685.982-6.275 4.182-6.27 7.746M19.677 5.708c-5.682-.224-12.756 3.478-15.181 7.627-2.374 4.058-1.613 11.73.924 16.282 2.828-9.038 6.799-17.32 14.257-23.91M18.961 43.8c3.73-.355 7.756-.92 10.824-4.075 3.644-3.746 5.736-8.376 7.392-13.231 1.086-3.186 1.469-6.443.62-9.762C36.123 10.188 28.413 6.48 23.9 5.949c-.563-.067-1.312.24-1.76.623-1.685 1.443-3.43 2.86-4.881 4.521-5.254 6.014-8.212 13.212-10.31 20.803-.177.645-.004 1.543.329 2.143 1.077 1.94 2.318 3.788 3.473 5.686 1.793 2.95 4.56 4.004 8.21 4.075m14.534 9.465c-1.558-6.01.06-10.31 4.629-12.712 4.995-2.628 8.173-1.563 13.455 4.506 4.934-2.264 9.078-9.591 8.873-15.639C59.92 13.706 46.18 2.619 31.133 3.11c-1.439.046-2.863.545-4.294.833 1.065.853 2.11 1.26 3.133 1.715 8.004 3.567 11.428 9.956 9.854 18.556-1.005 5.49-3.454 10.413-6.706 14.855-4.27 5.829-10.464 7.208-17.253 6.47-4.037-.439-6.195-3.479-8.163-6.622-.49-.783-1.014-1.546-1.719-2.613-1.164 3.953-.282 7.055 1.974 9.81 2.786 3.4 6.408 5.732 10.444 7.278 4.951 1.896 9.985 1.394 15.092-.127M20.813 3.873c1.356-.422 2.763-.725 4.06-1.284C30.104.332 35.447.717 40.662 2.265c10.513 3.12 17.697 9.834 20.82 20.522 2.717 9.304.013 17.518-7.706 23.41-.989.756-1.234 1.355-.787 2.537 1.753 4.644-1.79 9.853-5.01 9.869-2.759.015-5.527-.838-8.28-1.358-.574-.108-1.22-.319-1.634-.698-2.064-1.891-4.274-1.28-6.633-.71-9.909 2.39-18.062-.887-24.796-8.134-3.114-3.35-3.926-7.43-2.725-11.838.479-1.758.312-3.289-.41-5.002C1.495 26.11.346 21.177 1.396 15.951c1.025-5.102 4.635-7.926 8.906-10.116 3.24-1.661 6.759-2.294 10.51-1.962"/>
</svg>
