<svg xmlns="http://www.w3.org/2000/svg" width="35" height="35" viewBox="0 0 35 35">
    <g fill="none" fill-rule="evenodd">
        <path fill="#E5F6FF" fill-rule="nonzero" d="M0 0h32.023L35 2v33H2l-2-3.006V0zm5 5v27h27V5H5z"/>
        <path fill-rule="nonzero" stroke="#222" stroke-width="2" d="M1 1v30h30V1H1z"/>
        <path fill="#222" d="M22.362 12.238c.006.141.01.283.01.425 0 4.338-3.302 9.34-9.34 9.34A9.29 9.29 0 0 1 8 20.528a6.631 6.631 0 0 0 4.86-1.36 3.286 3.286 0 0 1-3.067-2.28 3.271 3.271 0 0 0 1.483-.055 3.285 3.285 0 0 1-2.633-3.219v-.041a3.27 3.27 0 0 0 1.487.41 3.28 3.28 0 0 1-1.016-4.382 9.32 9.32 0 0 0 6.766 3.43 3.283 3.283 0 0 1 5.594-2.994 6.57 6.57 0 0 0 2.084-.797 3.292 3.292 0 0 1-1.443 1.816A6.564 6.564 0 0 0 24 10.54a6.666 6.666 0 0 1-1.638 1.7z"/>
    </g>
</svg>
