<svg xmlns="http://www.w3.org/2000/svg" width="35" height="35" viewBox="0 0 35 35">
    <g fill="none" fill-rule="evenodd">
        <path fill="#E5F6FF" fill-rule="nonzero" d="M0 0h32.023L35 2v33H2l-2-3.006V0zm5 5v27h27V5H5z"/>
        <path fill-rule="nonzero" stroke="#222" stroke-width="2" d="M1 1v30h30V1H1z"/>
        <g fill="#000">
            <path fill-rule="nonzero" d="M19.964 8.002h-7.927C9.81 8.002 8 9.806 8 12.022v7.895c0 2.217 1.81 4.02 4.036 4.02h7.927c2.225 0 4.035-1.803 4.035-4.02v-7.895c0-2.216-1.81-4.02-4.035-4.02zm2.294 11.915c0 1.26-1.03 2.286-2.294 2.286h-7.927a2.293 2.293 0 0 1-2.295-2.286v-7.895c0-1.26 1.03-2.285 2.295-2.285h7.927a2.293 2.293 0 0 1 2.294 2.285v7.895z"/>
            <path d="M20.253 12.714a.974.974 0 0 1-.975-.97.974.974 0 0 1 1.95 0 .974.974 0 0 1-.975.97z"/>
            <path fill-rule="nonzero" d="M16 11.866c-2.272 0-4.12 1.84-4.12 4.104 0 2.262 1.848 4.104 4.12 4.104 2.272 0 4.12-1.842 4.12-4.104 0-2.263-1.848-4.104-4.12-4.104zm0 6.474a2.378 2.378 0 0 1-2.38-2.37A2.377 2.377 0 0 1 16 13.6a2.377 2.377 0 0 1 2.379 2.37 2.378 2.378 0 0 1-2.38 2.37z"/>
        </g>
    </g>
</svg>
