<svg xmlns="http://www.w3.org/2000/svg" width="76" height="71" viewBox="0 0 76 71">
    <g fill="none" fill-rule="evenodd">
        <path fill="#67C8DF" fill-opacity=".5" d="M72.406 21.873a2.923 2.923 0 0 0 2.923-2.922V7.049a2.921 2.921 0 0 0-2.923-2.922c-4.53 0-8.604.964-12.106 2.865-3.48 1.89-6.45 4.602-8.822 8.058-2.304 3.365-4.051 7.424-5.189 12.068-1.107 4.528-1.67 9.657-1.67 15.243v25.132a2.923 2.923 0 0 0 2.922 2.923h24.865a2.923 2.923 0 0 0 2.923-2.923V42.361a2.923 2.923 0 0 0-2.923-2.922h-9.194c.427-11.658 3.515-17.566 9.194-17.566M34.712 7.047v11.904a2.922 2.922 0 0 1-2.924 2.922c-5.758 0-8.892 5.906-9.326 17.566h9.326a2.923 2.923 0 0 1 2.924 2.922v25.132a2.923 2.923 0 0 1-2.924 2.923H6.922A2.923 2.923 0 0 1 4 67.493V42.361c0-5.588.563-10.717 1.673-15.245 1.137-4.644 2.884-8.703 5.19-12.066 2.372-3.456 5.339-6.169 8.818-8.058 3.505-1.901 7.58-2.867 12.109-2.867a2.923 2.923 0 0 1 2.922 2.922"/>
        <path fill="#E5F6FF" d="M68.406 17.873a2.923 2.923 0 0 0 2.923-2.922V3.049A2.921 2.921 0 0 0 68.406.127c-4.53 0-8.604.964-12.106 2.865-3.48 1.89-6.45 4.602-8.822 8.058-2.304 3.365-4.051 7.424-5.189 12.068-1.107 4.528-1.67 9.657-1.67 15.243v25.132a2.923 2.923 0 0 0 2.922 2.923h24.865a2.923 2.923 0 0 0 2.923-2.923V38.361a2.923 2.923 0 0 0-2.923-2.922h-9.194c.427-11.658 3.515-17.566 9.194-17.566M30.712 3.047v11.904a2.922 2.922 0 0 1-2.924 2.922c-5.758 0-8.892 5.906-9.326 17.566h9.326a2.923 2.923 0 0 1 2.924 2.922v25.132a2.923 2.923 0 0 1-2.924 2.923H2.922A2.923 2.923 0 0 1 0 63.493V38.361c0-5.588.563-10.717 1.673-15.245 1.137-4.644 2.884-8.703 5.19-12.066 2.372-3.456 5.339-6.169 8.818-8.058C19.186 1.091 23.261.125 27.79.125a2.923 2.923 0 0 1 2.922 2.922"/>
    </g>
</svg>
