<svg xmlns="http://www.w3.org/2000/svg" width="19" height="22" viewBox="0 0 19 22">
    <g fill="#000" fill-rule="evenodd" stroke="#222" stroke-width=".5">
        <path fill-rule="nonzero" d="M18.364 20.196L17.329 6.57a.625.625 0 0 0-.623-.578H2.695a.625.625 0 0 0-.623.579L1.029 20.32a.626.626 0 0 0 .623.671h16.11a.625.625 0 0 0 .602-.796zm-16.038-.454l.948-12.5h12.853l.949 12.5H2.326z"/>
        <path d="M9.7 1c-2.756 0-5 2.244-5 5.001v2.491a.625.625 0 0 0 1.25 0v-2.49A3.754 3.754 0 0 1 9.7 2.25a3.754 3.754 0 0 1 3.75 3.751v2.491a.625.625 0 0 0 1.25 0v-2.49A5.007 5.007 0 0 0 9.7 1z"/>
    </g>
</svg>
